<mxfile host="app.diagrams.net" modified="2023-06-02T15:40:00.447Z" agent="Mozilla/5.0 (Windows NT 10.0; Win64; x64) AppleWebKit/537.36 (KHTML, like Gecko) Chrome/113.0.0.0 Safari/537.36 Edg/113.0.1774.57" etag="GT16IWgO6VCgvGeHI1fP" version="21.3.6" type="device">
  <diagram name="페이지-1" id="yU33wogELhqiqXkEr2BG">
    <mxGraphModel dx="469" dy="1015" grid="0" gridSize="10" guides="1" tooltips="1" connect="1" arrows="1" fold="1" page="0" pageScale="1" pageWidth="827" pageHeight="1169" math="0" shadow="0">
      <root>
        <mxCell id="0" />
        <mxCell id="1" parent="0" />
        <mxCell id="8cCUTo8xv_mFH54zS42w-1" value="사용자" style="shape=umlLifeline;perimeter=lifelinePerimeter;whiteSpace=wrap;html=1;container=1;dropTarget=0;collapsible=0;recursiveResize=0;outlineConnect=0;portConstraint=eastwest;newEdgeStyle={&quot;edgeStyle&quot;:&quot;elbowEdgeStyle&quot;,&quot;elbow&quot;:&quot;vertical&quot;,&quot;curved&quot;:0,&quot;rounded&quot;:0};fontSize=16;" vertex="1" parent="1">
          <mxGeometry x="41" y="34" width="100" height="300" as="geometry" />
        </mxCell>
        <mxCell id="8cCUTo8xv_mFH54zS42w-2" value="시스템" style="shape=umlLifeline;perimeter=lifelinePerimeter;whiteSpace=wrap;html=1;container=1;dropTarget=0;collapsible=0;recursiveResize=0;outlineConnect=0;portConstraint=eastwest;newEdgeStyle={&quot;edgeStyle&quot;:&quot;elbowEdgeStyle&quot;,&quot;elbow&quot;:&quot;vertical&quot;,&quot;curved&quot;:0,&quot;rounded&quot;:0};fontSize=16;" vertex="1" parent="1">
          <mxGeometry x="248" y="34" width="100" height="300" as="geometry" />
        </mxCell>
        <mxCell id="8cCUTo8xv_mFH54zS42w-3" value="" style="html=1;points=[];perimeter=orthogonalPerimeter;outlineConnect=0;targetShapes=umlLifeline;portConstraint=eastwest;newEdgeStyle={&quot;edgeStyle&quot;:&quot;elbowEdgeStyle&quot;,&quot;elbow&quot;:&quot;vertical&quot;,&quot;curved&quot;:0,&quot;rounded&quot;:0};fontSize=16;" vertex="1" parent="8cCUTo8xv_mFH54zS42w-2">
          <mxGeometry x="45" y="72" width="10" height="80" as="geometry" />
        </mxCell>
        <mxCell id="8cCUTo8xv_mFH54zS42w-4" value="작업 완료 상태 변경 버튼 클릭" style="html=1;verticalAlign=bottom;endArrow=block;edgeStyle=elbowEdgeStyle;elbow=vertical;curved=0;rounded=0;fontSize=12;startSize=8;endSize=8;" edge="1" target="8cCUTo8xv_mFH54zS42w-3" parent="1">
          <mxGeometry x="0.005" relative="1" as="geometry">
            <mxPoint x="92" y="112" as="sourcePoint" />
            <mxPoint as="offset" />
          </mxGeometry>
        </mxCell>
        <mxCell id="8cCUTo8xv_mFH54zS42w-6" value="작업의 완료 상태를 변경한다." style="html=1;verticalAlign=bottom;endArrow=block;edgeStyle=elbowEdgeStyle;elbow=vertical;curved=0;rounded=0;fontSize=12;startSize=8;endSize=8;" edge="1" parent="1" source="8cCUTo8xv_mFH54zS42w-2" target="8cCUTo8xv_mFH54zS42w-1">
          <mxGeometry x="-0.0048" y="-5" width="80" relative="1" as="geometry">
            <mxPoint x="148" y="296" as="sourcePoint" />
            <mxPoint x="228" y="296" as="targetPoint" />
            <mxPoint as="offset" />
          </mxGeometry>
        </mxCell>
        <mxCell id="8cCUTo8xv_mFH54zS42w-7" value="UC007 작업의 완료 상태를 변경한다." style="shape=umlFrame;whiteSpace=wrap;html=1;pointerEvents=0;fontSize=16;width=311;height=29;" vertex="1" parent="1">
          <mxGeometry x="9" y="-38" width="363" height="411" as="geometry" />
        </mxCell>
      </root>
    </mxGraphModel>
  </diagram>
</mxfile>
